<?xml version="1.0" encoding="UTF-8" standalone="no"?>
<!-- Created with Inkscape (http://www.inkscape.org/) -->
<!-- extracted from: https://jellycatgallery.com/wl/?id=kaiN3S2ekp9swfmuzKdd21pvAcKuq2Ys -->
<svg
   width="300"
   height="300"
   viewBox="0 0 79.375001 79.375"
   version="1.1"
   id="svg1"
   xmlns="http://www.w3.org/2000/svg"
   xmlns:svg="http://www.w3.org/2000/svg">
  <defs
     id="defs1" />
  <g
     id="layer1"
     transform="translate(-49.477087,-60.324993)">
    <path
       id="path9462-9"
       clip-path="none"
       style="fill:#ffffff;fill-opacity:1;fill-rule:nonzero;stroke:none;stroke-width:0.352778"
       d="m 77.597265,72.349746 c -0.1377,0.003 -0.2769,0.0384 -0.4052,0.11111 -0.1661,0.0942 -4.0659,2.35203 -4.5873,6.43578 -0.06,0.46813 0.2712,0.89588 0.739,0.9555 0.037,0.005 0.073,0.007 0.109,0.007 0.4237,0 0.7915,-0.31511 0.8465,-0.74621 0.412,-3.22544 3.7046,-5.14807 3.7378,-5.16712 0.4092,-0.23319 0.5521,-0.7547 0.3193,-1.16427 -0.1601,-0.28183 -0.4561,-0.43764 -0.7591,-0.43202 z m 23.134495,0 c -0.303,-0.006 -0.5996,0.15019 -0.759695,0.43202 -0.2328,0.41028 -0.089,0.93195 0.321495,1.16478 0.033,0.019 3.3217,1.92071 3.7362,5.16661 0.055,0.4311 0.4222,0.74621 0.8459,0.74621 0.036,0 0.073,-0.002 0.1096,-0.007 0.4678,-0.0596 0.7989,-0.48737 0.739,-0.9555 -0.5215,-4.08375 -4.4216,-6.34159 -4.5874,-6.43578 -0.1281,-0.0728 -0.2674,-0.10855 -0.4051,-0.11111 z m -11.567295,1.51102 c -1.2103,0 -2.1952,0.91853 -2.1952,2.04742 0,0.35313 0.1044,0.68031 0.2724,0.971 -5.5499,0.7493 -7.0993,4.78933 -7.0993,7.03265 v 2.56676 c -1.022,0.28787 -1.6594,0.82372 -2.033,1.30173 -0.4505,0.57609 -0.6987,1.32289 -0.6987,2.10323 v 4.25711 h -0.9989 l -11.652,-8.29045 c 0,0 1.87,4.60033 0.3954,10.42469 -1.474,5.823644 -3.5182,10.956094 -1.5906,16.696134 l -13.3713,2.1885 c -0.1605,0.0339 -0.2763,0.14412 -0.2646,0.26407 0.015,0.11888 0.1538,0.19933 0.3168,0.19792 l 14.0213,-0.93793 c 0.3405,0.70661 0.7594,1.44057 1.2547,2.18281 l -13.1253,4.47466 c -0.1559,0.0607 -0.2493,0.18674 -0.2175,0.30386 0.035,0.11571 0.1838,0.1728 0.3457,0.14211 l 14.1531,-3.35742 c 0.4407,0.54011 0.925,1.07762 1.4542,1.60714 l -12.176,6.74119 c -0.1393,0.0878 -0.2121,0.22999 -0.1571,0.339 0.052,0.10795 0.2078,0.13605 0.3623,0.0786 l 13.4178,-5.8322 c 4.1528,3.48685 10.4874,6.30627 19.5714,6.31227 h 0.014 0.015 c 9.0844,-0.006 15.418495,-2.82542 19.571395,-6.31227 l 13.4178,5.8322 c 0.1545,0.0575 0.3111,0.0294 0.3623,-0.0786 0.055,-0.10901 -0.018,-0.25116 -0.1571,-0.339 l -12.176,-6.74119 c 0.5295,-0.52952 1.0135,-1.06703 1.4541,-1.60714 l 14.1537,3.35742 c 0.1623,0.0307 0.3103,-0.0264 0.3452,-0.14211 0.032,-0.11712 -0.062,-0.24318 -0.2176,-0.30386 l -13.1253,-4.47466 c 0.4953,-0.74224 0.9143,-1.4762 1.2547,-2.18281 l 14.0219,0.93793 c 0.1634,10e-4 0.3015,-0.079 0.3163,-0.19792 0.012,-0.11995 -0.1032,-0.2302 -0.2641,-0.26407 l -13.3718,-2.1885 c 1.9273,-5.74004 -0.1167,-10.87249 -1.5906,-16.696134 -1.4742,-5.82436 0.3954,-10.42469 0.3954,-10.42469 l -11.6521,8.29045 h -0.9989 v -4.25711 c 0,-0.78069 -0.2478,-1.5282 -0.6976,-2.10323 -0.373895,-0.47836 -1.011495,-1.01386 -2.033495,-1.30173 v -2.56676 c 0,-2.24332 -1.5494,-6.28335 -7.0993,-7.03265 0.168,-0.29069 0.2724,-0.61787 0.2724,-0.971 0,-1.12889 -0.985,-2.04742 -2.1958,-2.04742 z m -7.6977,0.38086 c -0.1109,-0.003 -0.224,0.0161 -0.3338,0.0594 -0.2099,0.0829 -5.1485,2.08465 -5.2586,7.3241 -0.01,0.47167 0.3645,0.86191 0.8361,0.87179 0.01,0 0.012,5.1e-4 0.018,5.1e-4 0.4636,0 0.8438,-0.37097 0.8537,-0.83664 0.086,-4.08693 4.0101,-5.70368 4.178,-5.77071 0.4378,-0.17356 0.6526,-0.6684 0.4801,-1.10691 -0.1294,-0.32914 -0.4407,-0.53315 -0.7736,-0.54157 z m 15.3949,0 c -0.3329,0.008 -0.6442,0.21241 -0.7736,0.54208 -0.1728,0.43886 0.043,0.93492 0.4822,1.10743 0.041,0.0162 4.089995,1.65523 4.176495,5.76967 0.01,0.46567 0.3901,0.83664 0.8537,0.83664 0.01,0 0.012,-5.1e-4 0.018,-5.1e-4 0.4716,-0.01 0.846,-0.40012 0.8361,-0.87178 -0.1101,-5.23946 -5.048395,-7.2412 -5.258595,-7.32411 -0.1099,-0.0434 -0.2234,-0.0622 -0.3344,-0.0594 z m -7.6972,0.8294 c 0.5433,0 0.985,0.37573 0.985,0.83716 0,0.45403 -0.421,0.81931 -0.9441,0.83871 h -0.081 c -0.5231,-0.0194 -0.9446,-0.38468 -0.9446,-0.83871 0,-0.46143 0.4417,-0.83716 0.9849,-0.83716 z m -0.055,2.90008 h 0.11 c 7.6549,0 7.7427,5.69802 7.7427,5.94073 v 2.37453 c -0.1231,-0.006 -0.2393,-0.0191 -0.3705,-0.0191 -2.0204,0 -3.0879,0.82305 -3.6277,1.51308 -0.032,0.0413 -0.056,0.0896 -0.086,0.1323 -0.03,-0.0427 -0.054,-0.091 -0.086,-0.1323 -0.5397,-0.69038 -1.6071,-1.51308 -3.6282,-1.51308 -2.0207,0 -3.0879,0.82305 -3.6276,1.51308 -0.033,0.0413 -0.056,0.0893 -0.086,0.1323 -0.03,-0.043 -0.054,-0.091 -0.086,-0.1323 -0.5394,-0.69003 -1.607,-1.51308 -3.6277,-1.51308 -0.1309,0 -0.2469,0.0128 -0.37,0.0191 v -2.37453 c 0,-0.24271 0.088,-5.94073 7.7427,-5.94073 z m -7.3727,9.52139 c 1.2262,0 2.1222,0.35103 2.6634,1.04283 0.2826,0.36089 0.4382,0.83988 0.4382,1.34823 v 3.37551 h -6.2027 v -3.37551 c 0,-0.508 0.1553,-0.98699 0.4382,-1.34823 0.5408,-0.6918 1.437,-1.04283 2.6629,-1.04283 z m 7.4274,0 c 1.2263,0 2.1223,0.35103 2.6634,1.04283 0.2826,0.36089 0.4383,0.83988 0.4383,1.34823 v 3.37551 h -6.2033 v -3.37551 c 0,-0.50835 0.1562,-0.98734 0.4388,-1.34823 0.5411,-0.6918 1.4366,-1.04283 2.6628,-1.04283 z m 7.4275,0 c 1.2266,0 2.1226,0.35103 2.6634,1.04283 0.2829,0.36089 0.4382,0.83988 0.4382,1.34823 v 3.37551 h -6.2027 v -3.37551 c 0,-0.50835 0.156,-0.98734 0.4382,-1.34823 0.5412,-0.6918 1.437,-1.04283 2.6629,-1.04283 z m -20.6499,9.73118 c 2.5848,0 4.6834,2.09671 4.6834,4.682924 0,2.54388 -2.0336,4.61319 -4.562,4.67775 0.4061,-0.3503 1.864,-1.80768 1.864,-4.68705 0,-3.584574 -1.9855,-4.663064 -2.0035,-4.672584 0.01,0 0.012,-0.001 0.018,-0.001 z m 26.444895,0 c 0.01,0 0.012,0.001 0.018,0.001 -0.018,0.01 -2.0035,1.08801 -2.0035,4.672584 0,2.87937 1.4584,4.33674 1.8645,4.68705 -2.527995,-0.0646 -4.562495,-2.13387 -4.562495,-4.67775 0,-2.586214 2.0989,-4.682924 4.683395,-4.682924 z m -26.466595,0.001 c -0.02,0.0116 -2.0645,1.17005 -2.0645,4.554244 0,2.93687 1.5682,4.45029 1.9937,4.80694 -2.5428,-0.0501 -4.5899,-2.12625 -4.5899,-4.6793 0,-2.578804 2.0847,-4.669894 4.6607,-4.681884 z m 26.488295,0 c 2.5763,0.012 4.6607,2.10308 4.6607,4.681884 0,2.55341 -2.0467,4.62921 -4.5899,4.6793 0.4251,-0.35665 1.9937,-1.87007 1.9937,-4.80694 0,-3.384194 -2.044,-4.542604 -2.0645,-4.554244 z m -13.234895,9.479534 c 9.4562,0 17.122995,4.15636 17.122995,9.28574 0,5.12974 -7.666795,9.2847 -17.122995,9.2847 -9.4622,0 -17.1286,-4.15496 -17.1286,-9.2847 0,-5.12938 7.6664,-9.28574 17.1286,-9.28574 z m 0,1.23352 c -3.2028,0 -4.5377,0.71008 -4.5377,1.52394 0,0.9278 2.5656,3.40693 3.7647,3.9181 v 2.81637 c 0,2.29587 -2.1225,4.63589 -4.206,4.63589 -2.1964,0 -4.2019,-2.18541 -4.2209,-2.20658 -0.2829,-0.31503 -0.7681,-0.34013 -1.0832,-0.0568 -0.3146,0.28364 -0.3396,0.7683 -0.056,1.08262 0.1,0.11113 2.4754,2.71405 5.3604,2.71405 2.0101,0 3.9431,-1.3923 4.9728,-3.28249 1.0294,1.89019 2.9627,3.28249 4.9729,3.28249 2.885,0 5.2605,-2.60292 5.3604,-2.71405 0.2829,-0.31432 0.2572,-0.79778 -0.056,-1.08106 -0.3139,-0.28364 -0.7986,-0.2585 -1.0826,0.0548 -0.02,0.0219 -2.0251,2.2071 -4.2214,2.2071 -2.0835,0 -4.206,-2.34002 -4.206,-4.63589 v -2.81172 c 1.1935,-0.49847 3.777,-2.99142 3.777,-3.92275 0,-0.81386 -1.3348,-1.52394 -4.5377,-1.52394 z m -9.7436,3.79512 c -0.4053,0 -0.7363,0.3286 -0.7363,0.73535 0,0.40816 0.331,0.73536 0.7363,0.73536 0.4082,0 0.738,-0.3272 0.738,-0.73536 0,-0.40675 -0.3298,-0.73535 -0.738,-0.73535 z m 19.4872,0 c -0.4081,0 -0.7384,0.3286 -0.7384,0.73535 0,0.40816 0.3303,0.73536 0.7384,0.73536 0.4057,0 0.7364,-0.3272 0.7364,-0.73536 0,-0.40675 -0.3307,-0.73535 -0.7364,-0.73535 z m -16.2321,1.3627 c -0.4071,0 -0.7338,0.32884 -0.7338,0.73278 0,0.40992 0.3267,0.73793 0.7338,0.73793 0.4071,0 0.7354,-0.32801 0.7354,-0.73793 0,-0.40394 -0.3283,-0.73278 -0.7354,-0.73278 z m 12.977,0 c -0.4067,0 -0.7353,0.32884 -0.7353,0.73278 0,0.40992 0.3286,0.73793 0.7353,0.73793 0.4068,0 0.7338,-0.32801 0.7338,-0.73793 0,-0.40394 -0.327,-0.73278 -0.7338,-0.73278 z m -18.1358,1.28675 c -0.4043,0 -0.7354,0.33015 -0.7354,0.7369 0,0.40711 0.3311,0.73639 0.7354,0.73639 0.4067,0 0.7364,-0.32928 0.7364,-0.73639 0,-0.40675 -0.3297,-0.7369 -0.7364,-0.7369 z m 23.294695,0 c -0.4071,0 -0.7364,0.33015 -0.7364,0.7369 0,0.40711 0.3293,0.73639 0.7364,0.73639 0.4043,0 0.7353,-0.32928 0.7353,-0.73639 0,-0.40675 -0.331,-0.7369 -0.7353,-0.7369 z" />
  </g>
</svg>
