<?xml version="1.0" encoding="UTF-8" standalone="no"?>
<!-- Created with Inkscape (http://www.inkscape.org/) -->

<svg
   width="300"
   height="300"
   viewBox="0 0 79.375001 79.375"
   version="1.1"
   id="svg1"
   xmlns="http://www.w3.org/2000/svg"
   xmlns:svg="http://www.w3.org/2000/svg">
  <defs
     id="defs1" />
  <path
     id="path3"
     style="display:inline;fill:#ffffff;fill-opacity:1;fill-rule:nonzero;stroke:none;stroke-width:0.352778"
     d="m 52.747524,34.247274 c -8.624253,0.281551 -17.335201,0.09766 -25.982422,0.09766 -3.510042,-2.497922 -7.020896,-4.994704 -10.53125,-7.492188 0.899098,3.57952 0.618265,7.373057 -0.479981,10.87581 -1.155907,4.307596 -2.598082,8.828906 -1.565351,13.313296 1.002872,4.712078 4.658553,8.229171 5.99455,9.38316 3.50557,3.00556 7.913071,4.90204 12.365236,5.74091 5.197551,0.9575 10.583334,0.89309 15.748621,-0.31925 3.896897,-0.92862 7.789827,-2.75169 10.893957,-5.42166 2.359131,-2.000935 4.161661,-4.538365 5.40625,-7.35547 1.15047,-3.04467 1.15726,-6.39613 0.4821,-9.54892 -0.61074,-3.28409 -1.85842,-6.424957 -2.32458,-9.736078 -0.28792,-2.308931 -0.16641,-4.672175 0.38545,-6.933751 -3.4642,2.465495 -6.92839,4.93099 -10.39258,7.396485 z" />
  <path
     id="path24"
     style="display:inline;fill:#ff8204;fill-opacity:1;fill-rule:nonzero;stroke:none;stroke-width:0.352778"
     d="M 28.120248 12.024589 C 27.982548 12.027589 27.843404 12.062984 27.715104 12.135693 C 27.549005 12.229893 23.649187 14.48773 23.127787 18.571476 C 23.067787 19.039606 23.398961 19.467354 23.86676 19.526974 C 23.90376 19.531974 23.939798 19.534208 23.975798 19.534208 C 24.399497 19.534208 24.767258 19.2191 24.822258 18.788001 C 25.234257 15.562564 28.526814 13.639924 28.560014 13.620874 C 28.969214 13.387684 29.112174 12.866174 28.879374 12.456604 C 28.719275 12.174774 28.423247 12.018969 28.120248 12.024589 z M 51.254753 12.024589 C 50.951753 12.018589 50.655204 12.174774 50.495109 12.456604 C 50.26231 12.866884 50.406042 13.388561 50.816537 13.621391 C 50.849537 13.640391 54.138243 15.542104 54.552743 18.788001 C 54.607743 19.2191 54.974986 19.534208 55.398686 19.534208 C 55.434686 19.534208 55.47164 19.53249 55.50824 19.52749 C 55.97604 19.46789 56.307113 19.040123 56.247213 18.571993 C 55.725714 14.488247 51.825696 12.2304 51.659896 12.13621 C 51.531796 12.06341 51.392453 12.027666 51.254753 12.025106 L 51.254753 12.024589 z M 31.989779 13.916463 C 31.878879 13.913463 31.765749 13.932591 31.655949 13.975891 C 31.446049 14.058791 26.507455 16.060547 26.397355 21.299992 C 26.387355 21.771662 26.76188 22.161893 27.23348 22.171773 C 27.24348 22.171773 27.245567 22.17229 27.251567 22.17229 C 27.715166 22.17229 28.095361 21.801318 28.105261 21.335649 C 28.191261 17.248723 32.115401 15.631971 32.283301 15.564942 C 32.721101 15.391382 32.935875 14.896542 32.763375 14.458032 C 32.633975 14.128893 32.322679 13.924883 31.989779 13.916463 z M 47.384705 13.916463 C 47.051805 13.924463 46.740509 14.128879 46.611109 14.458549 C 46.438309 14.897409 46.65405 15.393465 47.09325 15.565975 C 47.13425 15.582175 51.183239 17.221213 51.269739 21.335649 C 51.279739 21.801318 51.659834 22.17229 52.123434 22.17229 C 52.133434 22.17229 52.135521 22.171773 52.141521 22.171773 C 52.61312 22.161773 52.987545 21.771652 52.977645 21.299992 C 52.867545 16.060537 47.929251 14.058801 47.719051 13.975891 C 47.609152 13.932491 47.495705 13.913663 47.384705 13.916463 z M 39.694735 14.061157 C 39.630396 14.061852 39.565712 14.066693 39.501465 14.075627 C 38.396053 14.113307 37.583401 15.467574 38.282935 16.4052 C 38.95619 17.137392 37.980816 17.024265 37.451978 17.139006 C 35.021158 17.512778 32.728879 18.893595 31.746383 21.181136 C 30.930259 22.853513 31.262729 24.748849 31.194995 26.538432 C 29.841323 26.806018 28.532744 27.839057 28.474231 29.305705 C 28.446541 30.631974 28.470366 31.959616 28.462346 33.286341 L 50.911621 33.286341 C 50.855181 31.801946 51.026391 30.298379 50.823771 28.825631 C 50.558752 27.566762 49.360304 26.807101 48.181039 26.538432 C 48.134469 24.560052 48.468344 22.417583 47.35835 20.646285 C 46.191289 18.47099 43.757169 17.313343 41.331328 17.045988 C 40.40327 17.145108 41.19783 16.406424 41.300322 15.946314 C 41.594995 14.940782 40.659814 14.050739 39.694735 14.061157 z " />
  <path
     id="path1"
     clip-path="none"
     style="display:inline;fill:#000000;fill-opacity:1;fill-rule:nonzero;stroke:none;stroke-width:0.352778"
     d="m 89.164586,73.8606 c -1.210299,0 -2.195215,0.918531 -2.195215,2.04742 0,0.35313 0.104335,0.680311 0.272335,0.971 -5.549894,0.7493 -7.099308,4.789328 -7.099308,7.032646 v 2.566769 c -1.021999,0.287869 -1.659351,0.823719 -2.032951,1.301729 -0.4505,0.576089 -0.698665,1.322891 -0.698665,2.103231 v 4.257104 h -0.998906 l -11.652002,-8.29045 c 0,0 1.869923,4.600333 0.395325,10.424687 C 63.6812,102.09837 61.637,107.23084 63.564598,112.97087 l -13.371277,2.1885 c -0.160499,0.0339 -0.276283,0.14412 -0.264583,0.26407 0.015,0.11888 0.153777,0.19933 0.316777,0.19792 l 14.021366,-0.93793 c 0.3405,0.70661 0.759404,1.44057 1.254704,2.18281 l -13.125297,4.47467 c -0.1559,0.0607 -0.249358,0.18673 -0.217558,0.30385 0.035,0.11571 0.183815,0.1728 0.345715,0.14211 l 14.153142,-3.35741 c 0.440699,0.54011 0.924975,1.07761 1.454174,1.60713 l -12.176001,6.74119 c -0.1393,0.0878 -0.212096,0.22999 -0.157096,0.339 0.052,0.10795 0.207752,0.136 0.362252,0.0785 l 13.417786,-5.8322 c 4.152795,3.48684 10.487424,6.30627 19.571415,6.31227 h 0.01395 0.01499 c 9.084391,-0.006 15.418523,-2.82543 19.571413,-6.31227 l 13.41779,5.8322 c 0.1545,0.0575 0.31105,0.0294 0.36225,-0.0785 0.055,-0.10901 -0.018,-0.25116 -0.1571,-0.339 l -12.176,-6.74119 c 0.5295,-0.52952 1.01358,-1.06702 1.45418,-1.60713 l 14.15365,3.35741 c 0.1623,0.0307 0.3103,-0.0264 0.3452,-0.14211 0.032,-0.11712 -0.062,-0.24317 -0.21756,-0.30385 l -13.12529,-4.47467 c 0.4953,-0.74224 0.9143,-1.4762 1.2547,-2.18281 l 14.02188,0.93793 c 0.1634,0.001 0.30146,-0.079 0.31626,-0.19792 0.012,-0.11995 -0.10316,-0.2302 -0.26406,-0.26407 l -13.3718,-2.1885 c 1.9273,-5.74003 -0.1167,-10.8725 -1.5906,-16.696134 -1.47419,-5.824354 0.39533,-10.424687 0.39533,-10.424687 l -11.652,8.29045 h -0.99891 v -4.257104 c 0,-0.78069 -0.24783,-1.528202 -0.69763,-2.103231 -0.373895,-0.47836 -1.011469,-1.01386 -2.033468,-1.301729 v -2.566769 c 0,-2.243318 -1.549413,-6.283346 -7.099308,-7.032646 0.168,-0.290689 0.272335,-0.61787 0.272335,-0.971 0,-1.128889 -0.984933,-2.04742 -2.195733,-2.04742 z m 0,1.210262 c 0.5433,0 0.984953,0.375729 0.984953,0.837158 0,0.45403 -0.421029,0.819309 -0.944128,0.838709 h -0.08113 c -0.5231,-0.0194 -0.944646,-0.384679 -0.944646,-0.838709 0,-0.461429 0.441754,-0.837158 0.984953,-0.837158 z m -0.05529,2.900081 h 0.110071 c 7.654893,0 7.74268,5.698013 7.74268,5.940723 v 2.374532 c -0.1231,-0.006 -0.23932,-0.01912 -0.37052,-0.01912 -2.020398,0 -3.087886,0.823057 -3.627685,1.513086 -0.032,0.0413 -0.05578,0.08959 -0.08578,0.132292 -0.03,-0.0427 -0.0543,-0.09099 -0.0863,-0.132292 -0.539699,-0.690379 -1.607104,-1.513086 -3.628202,-1.513086 -2.020698,0 -3.08747,0.823057 -3.627169,1.513086 -0.033,0.0413 -0.0563,0.08929 -0.0863,0.132292 -0.03,-0.043 -0.05378,-0.09099 -0.08578,-0.132292 -0.539399,-0.690029 -1.606987,-1.513086 -3.627685,-1.513086 -0.1309,0 -0.246904,0.01282 -0.370003,0.01912 v -2.374532 c 0,-0.24271 0.08799,-5.940723 7.742679,-5.940723 z m -7.372676,9.521383 c 1.226199,0 2.122204,0.351031 2.663403,1.042831 0.2826,0.360889 0.438216,0.839888 0.438216,1.348238 v 3.375504 h -6.202722 v -3.375504 c 0,-0.508 0.155317,-0.986999 0.438216,-1.348238 0.5408,-0.6918 1.436988,-1.042831 2.662887,-1.042831 z m 7.427453,0 c 1.226299,0 2.122304,0.351031 2.663404,1.042831 0.2826,0.360889 0.438216,0.839888 0.438216,1.348238 v 3.375504 H 86.06245 v -3.375504 c 0,-0.50835 0.156133,-0.987349 0.438733,-1.348238 0.541099,-0.6918 1.436688,-1.042831 2.662886,-1.042831 z m 7.427454,0 c 1.226599,0 2.122604,0.351031 2.663403,1.042831 0.2829,0.360889 0.438217,0.839888 0.438217,1.348238 v 3.375504 H 93.49042 v -3.375504 c 0,-0.50835 0.156017,-0.987349 0.438217,-1.348238 0.541199,-0.6918 1.436987,-1.042831 2.662886,-1.042831 z m -20.649902,9.731189 c 2.584797,0 4.683435,2.096707 4.683435,4.682915 0,2.54388 -2.033598,4.61319 -4.561996,4.67775 0.4061,-0.3503 1.863969,-1.80768 1.863969,-4.68705 0,-3.584569 -1.985495,-4.663061 -2.003495,-4.672581 0.01,0 0.01209,-10e-4 0.01809,-10e-4 z m 26.444895,0 c 0.01,0 0.0121,10e-4 0.0181,10e-4 -0.018,0.01 -2.0035,1.088012 -2.0035,4.672585 0,2.87937 1.45839,4.33674 1.86449,4.68705 -2.527993,-0.0646 -4.562513,-2.13387 -4.562513,-4.67775 0,-2.586212 2.098943,-4.682919 4.683433,-4.682919 z m -26.466599,10e-4 c -0.02,0.0116 -2.064474,1.170053 -2.064474,4.554245 0,2.93687 1.568177,4.45029 1.993677,4.80694 -2.542798,-0.0501 -4.589901,-2.12625 -4.589901,-4.6793 0,-2.578802 2.0847,-4.669895 4.660698,-4.681885 z m 26.488299,0 c 2.5763,0.012 4.6607,2.103083 4.6607,4.681885 0,2.55341 -2.0467,4.62921 -4.5899,4.6793 0.4251,-0.35665 1.99368,-1.87007 1.99368,-4.80694 0,-3.384192 -2.04398,-4.542605 -2.06448,-4.554245 z m -13.234845,9.479525 c 9.456191,0 17.122985,4.15637 17.122985,9.28574 0,5.12974 -7.666794,9.28471 -17.122985,9.28471 -9.46219,0 -17.12867,-4.15497 -17.12867,-9.28471 0,-5.12937 7.66648,-9.28574 17.12867,-9.28574 z m 0,1.23352 c -3.202797,0 -4.537707,0.71008 -4.537707,1.52394 0,0.9278 2.565529,3.40694 3.764628,3.91811 v 2.81636 c 0,2.29587 -2.122447,4.63589 -4.205945,4.63589 -2.196398,0 -4.201931,-2.18541 -4.220931,-2.20658 -0.2829,-0.31503 -0.768038,-0.34017 -1.083138,-0.0568 -0.3146,0.28364 -0.33941,0.7683 -0.05581,1.08262 0.1,0.11113 2.4754,2.71404 5.360397,2.71404 2.010098,0 3.943124,-1.3923 4.972823,-3.28248 1.029399,1.89018 2.962625,3.28248 4.972823,3.28248 2.884997,0 5.260496,-2.60291 5.360396,-2.71404 0.2829,-0.31432 0.257389,-0.79779 -0.05581,-1.08107 -0.3139,-0.28364 -0.798622,-0.25853 -1.082622,0.0548 -0.02,0.0219 -2.025149,2.2071 -4.221447,2.2071 -2.083498,0 -4.205945,-2.34002 -4.205945,-4.63589 v -2.81171 c 1.193499,-0.49847 3.77703,-2.99143 3.77703,-3.92276 0,-0.81386 -1.33481,-1.52394 -4.537707,-1.52394 z m -9.743591,3.79512 c -0.4053,0 -0.736389,0.3286 -0.736389,0.73535 0,0.40816 0.331089,0.73536 0.736389,0.73536 0.408199,0 0.737939,-0.3272 0.737939,-0.73536 0,-0.40675 -0.32974,-0.73535 -0.737939,-0.73535 z m 19.487183,0 c -0.4081,0 -0.738457,0.3286 -0.738457,0.73535 0,0.40816 0.330357,0.73536 0.738457,0.73536 0.405699,0 0.736389,-0.3272 0.736389,-0.73536 0,-0.40675 -0.33069,-0.73535 -0.736389,-0.73535 z m -16.232085,1.3627 c -0.407099,0 -0.733805,0.32884 -0.733805,0.73278 0,0.40992 0.326706,0.73794 0.733805,0.73794 0.4071,0 0.735356,-0.32802 0.735356,-0.73794 0,-0.40394 -0.328256,-0.73278 -0.735356,-0.73278 z m 12.976986,0 c -0.406699,0 -0.735356,0.32884 -0.735356,0.73278 0,0.40992 0.328657,0.73794 0.735356,0.73794 0.4068,0 0.733805,-0.32802 0.733805,-0.73794 0,-0.40394 -0.327005,-0.73278 -0.733805,-0.73278 z m -18.135844,1.28675 c -0.404299,0 -0.735356,0.33015 -0.735356,0.7369 0,0.40711 0.331057,0.73639 0.735356,0.73639 0.4067,0 0.736389,-0.32928 0.736389,-0.73639 0,-0.40675 -0.329689,-0.7369 -0.736389,-0.7369 z m 23.294696,0 c -0.4071,0 -0.73639,0.33015 -0.73639,0.7369 0,0.40711 0.32929,0.73639 0.73639,0.73639 0.4043,0 0.73536,-0.32928 0.73536,-0.73639 0,-0.40675 -0.33106,-0.7369 -0.73536,-0.7369 z"
     transform="translate(-49.477086,-60.324992)" />
</svg>
